<svg fill="none" height="1200" viewBox="0 0 1200 1200" width="1200" xmlns="http://www.w3.org/2000/svg"><g fill="#000"><path clip-rule="evenodd" d="m605.318 91.5234c-.1-.0629-.202-.1241-.305-.1836-1.537-.8875-3.252-1.3341-4.967-1.3397-1.742-.0079-3.485.4386-5.046 1.3397-.104.0599-.206.1215-.307.1848l-432.375 249.6314c-.105.056-.209.113-.312.173-1.535.886-2.778 2.146-3.641 3.627-.879 1.505-1.365 3.24-1.365 5.044 0 .12.002.239.006.358v499.263c-.004.119-.006.238-.006.357 0 1.782.474 3.496 1.333 4.988.864 1.505 2.119 2.786 3.673 3.683.104.06.208.118.313.174l432.375 249.627c.101.07.203.13.306.19 1.549.89 3.278 1.34 5.006 1.34 1.729 0 3.458-.45 5.007-1.34.103-.06.205-.12.306-.19l432.371-249.628c.11-.055.21-.113.32-.173 1.55-.898 2.81-2.178 3.67-3.684.86-1.492 1.33-3.206 1.33-4.987 0-.119 0-.238 0-.357v-499.264c0-.119 0-.238 0-.357 0-1.787-.47-3.507-1.34-5.003-.86-1.499-2.11-2.773-3.66-3.668-.11-.06-.21-.118-.32-.173zm-15.318 25.8046-402.988 232.665 402.994 232.675zm-9.994 482.661-403-232.665v465.33zm-392.993 249.996 402.987 232.665.006-465.34zm422.994-232.675.006 465.34 402.987-232.665zm413.003 215.344v-465.33l-403.003 232.665zm-10.01-482.661-402.987-232.665-.006 465.34z" fill-rule="evenodd" opacity=".2"/><path clip-rule="evenodd" d="m611.466 81.2167c-.15-.0914-.301-.1811-.453-.2691-3.365-1.9428-7.116-2.9252-10.872-2.9471-3.845-.0247-7.695.9576-11.141 2.947-.154.089-.307.1796-.458.272l-129.433 74.7285 22 38.105 96.891-55.941.002 111.885h44.009l.001-111.885 96.892 55.941 22-38.106zm377.534 268.7763-96.891-55.94 22-38.106 129.431 74.73c.16.084.31.171.47.259 3.4 1.965 6.15 4.761 8.05 8.049 1.9 3.293 2.95 7.079 2.95 11.015v.53 149.459h-44v-111.881l-96.899 55.941-.004-.008-21.996-38.097-.005-.007zm-703.098 94.056-96.896-55.941v111.881h-44v-149.457c-.004-.177-.006-.354-.006-.532 0-3.959 1.064-7.766 2.99-11.073 1.898-3.263 4.634-6.038 8.017-7.991.152-.088.306-.174.46-.258l129.437-74.731 22 38.106-96.892 55.94 96.895 55.944zm22 349.985.005.008-96.895 55.943 96.892 55.94-22 38.106-129.434-74.729c-.156-.085-.31-.172-.464-.26-3.417-1.973-6.175-4.786-8.075-8.093-1.889-3.282-2.931-7.053-2.931-10.971 0-.177.002-.353.006-.529v-149.46h44v111.881l96.896-55.941.004.008zm703.108 17.836v-111.881h44v149.46.529c0 3.926-1.04 7.702-2.94 10.989-1.9 3.299-4.65 6.105-8.06 8.075-.16.088-.31.175-.47.26l-129.431 74.729-22-38.106 96.891-55.94-96.894-55.943.005-.008 21.996-38.097.004-.008zm-433.01 250 .002-111.889.009.001h43.991l.009-.001.001 111.889 96.892-55.94 22 38.1-129.435 74.73c-.15.09-.303.18-.456.27-3.406 1.97-7.206 2.95-11.007 2.95-3.8 0-7.601-.98-11.006-2.95-.154-.09-.306-.18-.457-.27l-129.434-74.73 22-38.1z" fill-rule="evenodd"/><path d="m600.006 574.578 118.891-68.642 22 38.106-118.878 68.634v137.313h-.025-43.975-.025v-137.313l-118.879-68.634 22-38.106z"/><path d="m1055.01 499.989c0 12.15-9.85 22-22 22s-22-9.85-22-22 9.85-22 22-22 22 9.85 22 22z"/><path d="m308.059 794.094c-10.523 6.075-23.978 2.47-30.053-8.052-6.075-10.523-2.47-23.978 8.053-30.053 10.522-6.075 23.977-2.47 30.052 8.053 6.075 10.522 2.47 23.977-8.052 30.052z"/><path d="m458.264 544.094c-10.523-6.075-14.128-19.53-8.053-30.052 6.075-10.523 19.53-14.128 30.053-8.053 10.522 6.075 14.128 19.53 8.052 30.053-6.075 10.522-19.53 14.127-30.052 8.052z"/><path d="m285.059 444.094c-10.523-6.075-14.128-19.53-8.053-30.052 6.075-10.523 19.53-14.128 30.053-8.053 10.522 6.075 14.127 19.53 8.052 30.053-6.075 10.522-19.53 14.127-30.052 8.052z"/><path d="m913.616 755.989c10.522 6.075 14.127 19.53 8.052 30.053-6.075 10.522-19.53 14.127-30.052 8.052-10.523-6.075-14.128-19.53-8.053-30.052 6.075-10.523 19.53-14.128 30.053-8.053z"/><path d="m622.006 750.908c0 12.15-9.849 22-22 22-12.15 0-22-9.85-22-22 0-12.151 9.85-22 22-22 12.151 0 22 9.849 22 22z"/><path d="m622.006 950.908c0 12.15-9.849 22-22 22-12.15 0-22-9.85-22-22 0-12.151 9.85-22 22-22 12.151 0 22 9.849 22 22z"/><path d="m577.006 250.989c0-12.15 9.85-22 22-22 12.151 0 22 9.85 22 22s-9.849 22-22 22c-12.15 0-22-9.85-22-22z"/><path d="m718.41 506.07c10.523-6.075 23.978-2.469 30.053 8.053s2.47 23.977-8.053 30.053c-10.522 6.075-23.977 2.469-30.052-8.053s-2.47-23.977 8.052-30.053z"/><path d="m891.616 406.07c10.522-6.075 23.977-2.469 30.052 8.053s2.47 23.977-8.052 30.053c-10.523 6.075-23.978 2.469-30.053-8.053s-2.47-23.977 8.053-30.053z"/><path d="m1055.01 699.989c0 12.15-9.85 22-22 22s-22-9.85-22-22 9.85-22 22-22 22 9.85 22 22z"/><path d="m189.006 499.989c0 12.15-9.849 22-22 22-12.15 0-22-9.85-22-22s9.85-22 22-22c12.151 0 22 9.85 22 22z"/><path d="m189.006 699.989c0 12.15-9.849 22-22 22-12.15 0-22-9.85-22-22s9.85-22 22-22c12.151 0 22 9.85 22 22z"/><path d="m307.904 905.925c10.522 6.076 14.127 19.531 8.052 30.053-6.075 10.523-19.53 14.128-30.052 8.053-10.523-6.076-14.128-19.53-8.053-30.053 6.075-10.522 19.53-14.128 30.053-8.053z"/><path d="m740.904 155.947c10.522 6.076 14.127 19.531 8.052 30.053s-19.53 14.128-30.052 8.053c-10.523-6.076-14.128-19.531-8.053-30.053s19.53-14.128 30.053-8.053z"/><path d="m481.109 1005.93c10.522 6.07 14.127 19.53 8.052 30.05s-19.53 14.13-30.052 8.05c-10.523-6.07-14.128-19.53-8.053-30.05s19.53-14.13 30.053-8.05z"/><path d="m914.109 255.947c10.522 6.076 14.127 19.531 8.052 30.053s-19.53 14.128-30.052 8.053c-10.523-6.076-14.128-19.531-8.053-30.053s19.53-14.128 30.053-8.053z"/><path d="m481.109 194.053c-10.523 6.075-23.977 2.469-30.053-8.053-6.075-10.522-2.47-23.977 8.053-30.052 10.522-6.076 23.977-2.47 30.053 8.052 6.075 10.522 2.469 23.977-8.053 30.053z"/><path d="m914.109 944.031c-10.523 6.075-23.977 2.469-30.052-8.053-6.076-10.522-2.471-23.977 8.052-30.053 10.522-6.075 23.977-2.469 30.053 8.053 6.075 10.522 2.469 23.977-8.053 30.053z"/><path d="m307.904 294.053c-10.523 6.075-23.977 2.469-30.053-8.053-6.075-10.522-2.47-23.977 8.053-30.053 10.522-6.075 23.977-2.469 30.053 8.053 6.075 10.522 2.469 23.977-8.053 30.053z"/><path d="m740.904 1044.03c-10.523 6.08-23.977 2.47-30.053-8.05-6.075-10.52-2.47-23.98 8.053-30.05 10.522-6.08 23.977-2.47 30.053 8.05 6.075 10.52 2.469 23.98-8.053 30.05z"/></g></svg>