<svg viewBox="0 0 150 190" xmlns="http://www.w3.org/2000/svg"><path d="m90.62 147.24h-1.75c-.19-7.27-.43-17.71-.56-26.39l11.66-.23 2.22-13-13.94 1c.25-10.62 2.22-12.62 9.12-12.62h5.85v-13.52a80.78 80.78 0 0 0 -11.59-.69c-14.2 0-18.63 8.87-18.63 26.46v1.34l-7.17.49-.1 11.2 7.24-.14c0 9.24-.08 19-.11 25.84-6.11-.13-12.14-.26-17-.26-18.31 0-23.28-10.83-23.28-24.6s.27-29 .27-34.22c0-15.47 6.85-24.06 23.83-24.06 6.28 0 29.9-.06 37.94-.06 15.45 0 22.86 6.38 22.86 25.06 0 4.61-.34 13.24-.34 37.17-.03 15.05-7.14 21.23-26.52 21.23z" fill-rule="evenodd"/></svg>