<svg fill="none" height="24" viewBox="0 0 34 24" width="34" xmlns="http://www.w3.org/2000/svg"><path d="m17 13-5 5-5-5h3v-4h4v4zm2.35-2.97c-.3379-1.70044-1.2553-3.23099-2.5957-4.33062-1.3403-1.09963-3.0206-1.70023-4.7543-1.69938-2.89 0-5.4 1.64-6.65 4.03-1.47062.16115-2.82996.85959-3.81729 1.96134-.987336 1.10176-1.53313493 2.52926-1.53270975 4.00866 0 1.5913.63214075 3.1174 1.75735975 4.2426 1.12522 1.1253 2.65134 1.7574 4.24264 1.7574h13c.6566 0 1.3068-.1293 1.9134-.3806s1.1578-.6196 1.6221-1.0839.8326-1.0155 1.0839-1.6221.3806-1.2568.3806-1.9134c0-2.64-2.05-4.78-4.65-4.97z" fill="#fff"/></svg>